<svg xmlns="http://www.w3.org/2000/svg" xmlns:xlink="http://www.w3.org/1999/xlink" width="1920" zoomAndPan="magnify" viewBox="0 0 1440 809.999993" height="1080" preserveAspectRatio="xMidYMid meet" version="1.0"><defs><g/><clipPath id="dff890f139"><path d="M 0 233.390625 L 343.5 233.390625 L 343.5 576.890625 L 0 576.890625 Z M 0 233.390625 " clip-rule="nonzero"/></clipPath><clipPath id="bb9b66a6bb"><path d="M 343.5 405.140625 C 343.5 407.949219 343.429688 410.757812 343.292969 413.566406 C 343.15625 416.375 342.949219 419.175781 342.671875 421.972656 C 342.398438 424.769531 342.054688 427.558594 341.640625 430.339844 C 341.230469 433.121094 340.75 435.890625 340.199219 438.644531 C 339.652344 441.402344 339.035156 444.144531 338.351562 446.871094 C 337.667969 449.597656 336.921875 452.304688 336.105469 454.996094 C 335.289062 457.6875 334.40625 460.355469 333.460938 463 C 332.511719 465.648438 331.5 468.269531 330.425781 470.867188 C 329.351562 473.460938 328.210938 476.03125 327.011719 478.570312 C 325.808594 481.113281 324.542969 483.625 323.21875 486.101562 C 321.894531 488.582031 320.511719 491.027344 319.066406 493.4375 C 317.621094 495.847656 316.117188 498.222656 314.554688 500.558594 C 312.992188 502.894531 311.375 505.195312 309.699219 507.449219 C 308.027344 509.707031 306.296875 511.925781 304.515625 514.097656 C 302.730469 516.269531 300.894531 518.398438 299.007812 520.480469 C 297.121094 522.5625 295.183594 524.597656 293.195312 526.585938 C 291.207031 528.574219 289.171875 530.511719 287.089844 532.398438 C 285.007812 534.285156 282.878906 536.121094 280.707031 537.902344 C 278.535156 539.6875 276.320312 541.417969 274.0625 543.089844 C 271.804688 544.765625 269.507812 546.382812 267.167969 547.945312 C 264.832031 549.507812 262.457031 551.007812 260.046875 552.453125 C 257.636719 553.898438 255.191406 555.285156 252.710938 556.609375 C 250.234375 557.933594 247.722656 559.199219 245.183594 560.398438 C 242.640625 561.601562 240.074219 562.742188 237.476562 563.816406 C 234.878906 564.890625 232.257812 565.902344 229.609375 566.851562 C 226.964844 567.796875 224.296875 568.679688 221.605469 569.496094 C 218.917969 570.308594 216.207031 571.058594 213.480469 571.742188 C 210.753906 572.425781 208.011719 573.042969 205.257812 573.589844 C 202.5 574.136719 199.730469 574.617188 196.949219 575.03125 C 194.171875 575.441406 191.382812 575.789062 188.585938 576.0625 C 185.789062 576.339844 182.984375 576.542969 180.175781 576.683594 C 177.371094 576.820312 174.5625 576.890625 171.75 576.890625 C 168.9375 576.890625 166.128906 576.820312 163.324219 576.683594 C 160.515625 576.542969 157.710938 576.339844 154.914062 576.0625 C 152.117188 575.789062 149.328125 575.441406 146.550781 575.03125 C 143.769531 574.617188 141 574.136719 138.242188 573.589844 C 135.488281 573.042969 132.746094 572.425781 130.019531 571.742188 C 127.292969 571.058594 124.582031 570.308594 121.894531 569.496094 C 119.203125 568.679688 116.535156 567.796875 113.890625 566.851562 C 111.242188 565.902344 108.621094 564.890625 106.023438 563.816406 C 103.425781 562.742188 100.859375 561.601562 98.316406 560.398438 C 95.777344 559.199219 93.265625 557.933594 90.789062 556.609375 C 88.308594 555.285156 85.863281 553.898438 83.453125 552.453125 C 81.042969 551.007812 78.667969 549.507812 76.332031 547.945312 C 73.992188 546.382812 71.695312 544.765625 69.4375 543.089844 C 67.179688 541.417969 64.964844 539.6875 62.792969 537.902344 C 60.621094 536.121094 58.492188 534.285156 56.410156 532.398438 C 54.328125 530.511719 52.292969 528.574219 50.304688 526.585938 C 48.316406 524.597656 46.378906 522.5625 44.492188 520.480469 C 42.605469 518.398438 40.769531 516.269531 38.984375 514.097656 C 37.203125 511.925781 35.472656 509.707031 33.800781 507.449219 C 32.125 505.195312 30.507812 502.894531 28.945312 500.558594 C 27.382812 498.222656 25.878906 495.847656 24.433594 493.4375 C 22.988281 491.027344 21.605469 488.582031 20.28125 486.101562 C 18.953125 483.625 17.691406 481.113281 16.488281 478.574219 C 15.289062 476.03125 14.148438 473.460938 13.074219 470.867188 C 11.996094 468.269531 10.988281 465.648438 10.039062 463 C 9.09375 460.355469 8.210938 457.6875 7.394531 454.996094 C 6.578125 452.304688 5.832031 449.597656 5.148438 446.871094 C 4.464844 444.144531 3.847656 441.402344 3.300781 438.644531 C 2.75 435.890625 2.269531 433.121094 1.859375 430.339844 C 1.445312 427.558594 1.101562 424.769531 0.828125 421.972656 C 0.550781 419.175781 0.34375 416.375 0.207031 413.566406 C 0.0703125 410.757812 0 407.949219 0 405.140625 C 0 402.328125 0.0703125 399.519531 0.207031 396.710938 C 0.34375 393.90625 0.550781 391.101562 0.828125 388.304688 C 1.101562 385.507812 1.445312 382.71875 1.859375 379.9375 C 2.269531 377.160156 2.75 374.390625 3.300781 371.632812 C 3.847656 368.875 4.464844 366.132812 5.148438 363.40625 C 5.832031 360.679688 6.578125 357.972656 7.394531 355.285156 C 8.210938 352.59375 9.09375 349.925781 10.039062 347.277344 C 10.988281 344.632812 11.996094 342.011719 13.074219 339.414062 C 14.148438 336.816406 15.289062 334.25 16.488281 331.707031 C 17.691406 329.167969 18.953125 326.65625 20.28125 324.175781 C 21.605469 321.699219 22.988281 319.253906 24.433594 316.84375 C 25.878906 314.429688 27.382812 312.058594 28.945312 309.71875 C 30.507812 307.382812 32.125 305.085938 33.800781 302.828125 C 35.472656 300.570312 37.203125 298.355469 38.984375 296.183594 C 40.769531 294.011719 42.605469 291.882812 44.492188 289.800781 C 46.378906 287.714844 48.316406 285.683594 50.304688 283.695312 C 52.292969 281.707031 54.328125 279.769531 56.410156 277.882812 C 58.492188 275.992188 60.621094 274.160156 62.792969 272.375 C 64.964844 270.59375 67.179688 268.863281 69.4375 267.1875 C 71.695312 265.515625 73.992188 263.894531 76.332031 262.335938 C 78.667969 260.773438 81.042969 259.269531 83.453125 257.824219 C 85.863281 256.378906 88.308594 254.996094 90.789062 253.667969 C 93.265625 252.34375 95.777344 251.082031 98.316406 249.878906 C 100.859375 248.679688 103.425781 247.539062 106.023438 246.464844 C 108.621094 245.386719 111.242188 244.375 113.890625 243.429688 C 116.535156 242.484375 119.203125 241.601562 121.894531 240.785156 C 124.582031 239.96875 127.292969 239.21875 130.019531 238.535156 C 132.746094 237.855469 135.488281 237.238281 138.242188 236.691406 C 141 236.140625 143.769531 235.660156 146.550781 235.25 C 149.328125 234.835938 152.117188 234.492188 154.914062 234.214844 C 157.710938 233.941406 160.515625 233.734375 163.324219 233.597656 C 166.128906 233.457031 168.9375 233.390625 171.75 233.390625 C 174.5625 233.390625 177.371094 233.457031 180.175781 233.597656 C 182.984375 233.734375 185.789062 233.941406 188.585938 234.214844 C 191.382812 234.492188 194.171875 234.835938 196.949219 235.25 C 199.730469 235.660156 202.5 236.140625 205.257812 236.691406 C 208.011719 237.238281 210.753906 237.855469 213.480469 238.535156 C 216.207031 239.21875 218.917969 239.96875 221.605469 240.785156 C 224.296875 241.601562 226.964844 242.484375 229.609375 243.429688 C 232.257812 244.375 234.878906 245.386719 237.476562 246.464844 C 240.074219 247.539062 242.640625 248.679688 245.183594 249.878906 C 247.722656 251.082031 250.234375 252.34375 252.710938 253.667969 C 255.191406 254.996094 257.636719 256.378906 260.046875 257.824219 C 262.457031 259.269531 264.832031 260.773438 267.167969 262.335938 C 269.507812 263.894531 271.804688 265.515625 274.0625 267.1875 C 276.320312 268.863281 278.535156 270.59375 280.707031 272.375 C 282.878906 274.160156 285.007812 275.992188 287.089844 277.882812 C 289.171875 279.769531 291.207031 281.707031 293.195312 283.695312 C 295.183594 285.683594 297.121094 287.714844 299.007812 289.800781 C 300.894531 291.882812 302.730469 294.011719 304.515625 296.183594 C 306.296875 298.355469 308.027344 300.570312 309.699219 302.828125 C 311.375 305.085938 312.992188 307.382812 314.554688 309.71875 C 316.117188 312.058594 317.621094 314.429688 319.066406 316.84375 C 320.511719 319.253906 321.894531 321.699219 323.21875 324.175781 C 324.542969 326.65625 325.808594 329.167969 327.011719 331.707031 C 328.210938 334.25 329.351562 336.816406 330.425781 339.414062 C 331.5 342.011719 332.511719 344.632812 333.460938 347.277344 C 334.40625 349.925781 335.289062 352.59375 336.105469 355.285156 C 336.921875 357.972656 337.667969 360.679688 338.351562 363.40625 C 339.035156 366.132812 339.652344 368.875 340.199219 371.632812 C 340.75 374.390625 341.230469 377.160156 341.640625 379.9375 C 342.054688 382.71875 342.398438 385.507812 342.671875 388.304688 C 342.949219 391.101562 343.15625 393.90625 343.292969 396.710938 C 343.429688 399.519531 343.5 402.328125 343.5 405.140625 Z M 343.5 405.140625 " clip-rule="nonzero"/></clipPath><linearGradient x1="275" gradientTransform="matrix(0.624545, 0, 0, 0.624545, 0.00000622222, 233.389728)" y1="-0.00000596365" x2="275" gradientUnits="userSpaceOnUse" y2="549.999929" id="7e6712e506"><stop stop-opacity="1" stop-color="rgb(36.499023%, 56.898499%, 97.599792%)" offset="0"/><stop stop-opacity="1" stop-color="rgb(36.662292%, 56.729126%, 97.608948%)" offset="0.0078125"/><stop stop-opacity="1" stop-color="rgb(36.990356%, 56.391907%, 97.627258%)" offset="0.015625"/><stop stop-opacity="1" stop-color="rgb(37.316895%, 56.054688%, 97.645569%)" offset="0.0234375"/><stop stop-opacity="1" stop-color="rgb(37.644958%, 55.717468%, 97.665405%)" offset="0.03125"/><stop stop-opacity="1" stop-color="rgb(37.971497%, 55.380249%, 97.683716%)" offset="0.0390625"/><stop stop-opacity="1" stop-color="rgb(38.299561%, 55.04303%, 97.702026%)" offset="0.046875"/><stop stop-opacity="1" stop-color="rgb(38.626099%, 54.704285%, 97.720337%)" offset="0.0546875"/><stop stop-opacity="1" stop-color="rgb(38.954163%, 54.367065%, 97.740173%)" offset="0.0625"/><stop stop-opacity="1" stop-color="rgb(39.280701%, 54.029846%, 97.758484%)" offset="0.0703125"/><stop stop-opacity="1" stop-color="rgb(39.608765%, 53.692627%, 97.776794%)" offset="0.078125"/><stop stop-opacity="1" stop-color="rgb(39.935303%, 53.355408%, 97.796631%)" offset="0.0859375"/><stop stop-opacity="1" stop-color="rgb(40.263367%, 53.016663%, 97.814941%)" offset="0.09375"/><stop stop-opacity="1" stop-color="rgb(40.591431%, 52.679443%, 97.833252%)" offset="0.101562"/><stop stop-opacity="1" stop-color="rgb(40.917969%, 52.342224%, 97.851562%)" offset="0.109375"/><stop stop-opacity="1" stop-color="rgb(41.246033%, 52.005005%, 97.871399%)" offset="0.117188"/><stop stop-opacity="1" stop-color="rgb(41.572571%, 51.667786%, 97.889709%)" offset="0.125"/><stop stop-opacity="1" stop-color="rgb(41.900635%, 51.330566%, 97.90802%)" offset="0.132813"/><stop stop-opacity="1" stop-color="rgb(42.227173%, 50.991821%, 97.927856%)" offset="0.140625"/><stop stop-opacity="1" stop-color="rgb(42.555237%, 50.654602%, 97.946167%)" offset="0.148438"/><stop stop-opacity="1" stop-color="rgb(42.881775%, 50.317383%, 97.964478%)" offset="0.15625"/><stop stop-opacity="1" stop-color="rgb(43.209839%, 49.980164%, 97.982788%)" offset="0.164063"/><stop stop-opacity="1" stop-color="rgb(43.536377%, 49.642944%, 98.002625%)" offset="0.171875"/><stop stop-opacity="1" stop-color="rgb(43.864441%, 49.304199%, 98.020935%)" offset="0.179688"/><stop stop-opacity="1" stop-color="rgb(44.190979%, 48.96698%, 98.039246%)" offset="0.1875"/><stop stop-opacity="1" stop-color="rgb(44.519043%, 48.629761%, 98.059082%)" offset="0.195313"/><stop stop-opacity="1" stop-color="rgb(44.845581%, 48.292542%, 98.077393%)" offset="0.203125"/><stop stop-opacity="1" stop-color="rgb(45.173645%, 47.955322%, 98.095703%)" offset="0.210938"/><stop stop-opacity="1" stop-color="rgb(45.500183%, 47.616577%, 98.114014%)" offset="0.21875"/><stop stop-opacity="1" stop-color="rgb(45.828247%, 47.279358%, 98.13385%)" offset="0.226563"/><stop stop-opacity="1" stop-color="rgb(46.156311%, 46.942139%, 98.152161%)" offset="0.234375"/><stop stop-opacity="1" stop-color="rgb(46.482849%, 46.604919%, 98.170471%)" offset="0.242188"/><stop stop-opacity="1" stop-color="rgb(46.810913%, 46.2677%, 98.190308%)" offset="0.25"/><stop stop-opacity="1" stop-color="rgb(47.137451%, 45.930481%, 98.208618%)" offset="0.257812"/><stop stop-opacity="1" stop-color="rgb(47.465515%, 45.591736%, 98.226929%)" offset="0.265625"/><stop stop-opacity="1" stop-color="rgb(47.792053%, 45.254517%, 98.245239%)" offset="0.273438"/><stop stop-opacity="1" stop-color="rgb(48.120117%, 44.917297%, 98.265076%)" offset="0.28125"/><stop stop-opacity="1" stop-color="rgb(48.446655%, 44.580078%, 98.283386%)" offset="0.289062"/><stop stop-opacity="1" stop-color="rgb(48.774719%, 44.242859%, 98.301697%)" offset="0.296875"/><stop stop-opacity="1" stop-color="rgb(49.101257%, 43.904114%, 98.321533%)" offset="0.304687"/><stop stop-opacity="1" stop-color="rgb(49.429321%, 43.566895%, 98.339844%)" offset="0.3125"/><stop stop-opacity="1" stop-color="rgb(49.755859%, 43.229675%, 98.358154%)" offset="0.320313"/><stop stop-opacity="1" stop-color="rgb(50.083923%, 42.892456%, 98.376465%)" offset="0.328125"/><stop stop-opacity="1" stop-color="rgb(50.410461%, 42.555237%, 98.396301%)" offset="0.335938"/><stop stop-opacity="1" stop-color="rgb(50.738525%, 42.216492%, 98.414612%)" offset="0.34375"/><stop stop-opacity="1" stop-color="rgb(51.065063%, 41.879272%, 98.432922%)" offset="0.351562"/><stop stop-opacity="1" stop-color="rgb(51.393127%, 41.542053%, 98.452759%)" offset="0.359375"/><stop stop-opacity="1" stop-color="rgb(51.721191%, 41.204834%, 98.471069%)" offset="0.367188"/><stop stop-opacity="1" stop-color="rgb(52.047729%, 40.867615%, 98.48938%)" offset="0.375"/><stop stop-opacity="1" stop-color="rgb(52.375793%, 40.530396%, 98.50769%)" offset="0.382812"/><stop stop-opacity="1" stop-color="rgb(52.702332%, 40.19165%, 98.527527%)" offset="0.390625"/><stop stop-opacity="1" stop-color="rgb(53.030396%, 39.854431%, 98.545837%)" offset="0.398437"/><stop stop-opacity="1" stop-color="rgb(53.356934%, 39.517212%, 98.564148%)" offset="0.40625"/><stop stop-opacity="1" stop-color="rgb(53.684998%, 39.179993%, 98.583984%)" offset="0.414063"/><stop stop-opacity="1" stop-color="rgb(54.011536%, 38.842773%, 98.602295%)" offset="0.421875"/><stop stop-opacity="1" stop-color="rgb(54.3396%, 38.504028%, 98.620605%)" offset="0.429688"/><stop stop-opacity="1" stop-color="rgb(54.666138%, 38.166809%, 98.638916%)" offset="0.4375"/><stop stop-opacity="1" stop-color="rgb(54.994202%, 37.82959%, 98.658752%)" offset="0.445312"/><stop stop-opacity="1" stop-color="rgb(55.32074%, 37.492371%, 98.677063%)" offset="0.453125"/><stop stop-opacity="1" stop-color="rgb(55.648804%, 37.155151%, 98.695374%)" offset="0.460938"/><stop stop-opacity="1" stop-color="rgb(55.975342%, 36.816406%, 98.71521%)" offset="0.46875"/><stop stop-opacity="1" stop-color="rgb(56.303406%, 36.479187%, 98.733521%)" offset="0.476562"/><stop stop-opacity="1" stop-color="rgb(56.629944%, 36.141968%, 98.751831%)" offset="0.484375"/><stop stop-opacity="1" stop-color="rgb(56.958008%, 35.804749%, 98.770142%)" offset="0.492187"/><stop stop-opacity="1" stop-color="rgb(57.286072%, 35.467529%, 98.789978%)" offset="0.5"/><stop stop-opacity="1" stop-color="rgb(57.61261%, 35.13031%, 98.808289%)" offset="0.507812"/><stop stop-opacity="1" stop-color="rgb(57.940674%, 34.791565%, 98.826599%)" offset="0.515625"/><stop stop-opacity="1" stop-color="rgb(58.267212%, 34.454346%, 98.846436%)" offset="0.523438"/><stop stop-opacity="1" stop-color="rgb(58.595276%, 34.117126%, 98.864746%)" offset="0.53125"/><stop stop-opacity="1" stop-color="rgb(58.921814%, 33.779907%, 98.883057%)" offset="0.539062"/><stop stop-opacity="1" stop-color="rgb(59.249878%, 33.442688%, 98.902893%)" offset="0.546875"/><stop stop-opacity="1" stop-color="rgb(59.576416%, 33.103943%, 98.921204%)" offset="0.554687"/><stop stop-opacity="1" stop-color="rgb(59.90448%, 32.766724%, 98.939514%)" offset="0.5625"/><stop stop-opacity="1" stop-color="rgb(60.231018%, 32.429504%, 98.957825%)" offset="0.570313"/><stop stop-opacity="1" stop-color="rgb(60.559082%, 32.092285%, 98.977661%)" offset="0.578125"/><stop stop-opacity="1" stop-color="rgb(60.88562%, 31.755066%, 98.995972%)" offset="0.585938"/><stop stop-opacity="1" stop-color="rgb(61.213684%, 31.417847%, 99.014282%)" offset="0.59375"/><stop stop-opacity="1" stop-color="rgb(61.540222%, 31.079102%, 99.034119%)" offset="0.601562"/><stop stop-opacity="1" stop-color="rgb(61.868286%, 30.741882%, 99.052429%)" offset="0.609375"/><stop stop-opacity="1" stop-color="rgb(62.194824%, 30.404663%, 99.07074%)" offset="0.617188"/><stop stop-opacity="1" stop-color="rgb(62.522888%, 30.067444%, 99.08905%)" offset="0.625"/><stop stop-opacity="1" stop-color="rgb(62.850952%, 29.730225%, 99.108887%)" offset="0.632812"/><stop stop-opacity="1" stop-color="rgb(63.17749%, 29.391479%, 99.127197%)" offset="0.640625"/><stop stop-opacity="1" stop-color="rgb(63.505554%, 29.05426%, 99.145508%)" offset="0.648437"/><stop stop-opacity="1" stop-color="rgb(63.832092%, 28.717041%, 99.165344%)" offset="0.65625"/><stop stop-opacity="1" stop-color="rgb(64.160156%, 28.379822%, 99.183655%)" offset="0.664063"/><stop stop-opacity="1" stop-color="rgb(64.486694%, 28.042603%, 99.201965%)" offset="0.671875"/><stop stop-opacity="1" stop-color="rgb(64.814758%, 27.703857%, 99.220276%)" offset="0.679688"/><stop stop-opacity="1" stop-color="rgb(65.141296%, 27.366638%, 99.240112%)" offset="0.6875"/><stop stop-opacity="1" stop-color="rgb(65.46936%, 27.029419%, 99.258423%)" offset="0.695312"/><stop stop-opacity="1" stop-color="rgb(65.795898%, 26.6922%, 99.276733%)" offset="0.703125"/><stop stop-opacity="1" stop-color="rgb(66.123962%, 26.35498%, 99.29657%)" offset="0.710938"/><stop stop-opacity="1" stop-color="rgb(66.4505%, 26.017761%, 99.31488%)" offset="0.71875"/><stop stop-opacity="1" stop-color="rgb(66.778564%, 25.679016%, 99.333191%)" offset="0.726562"/><stop stop-opacity="1" stop-color="rgb(67.105103%, 25.341797%, 99.351501%)" offset="0.734375"/><stop stop-opacity="1" stop-color="rgb(67.433167%, 25.004578%, 99.371338%)" offset="0.742187"/><stop stop-opacity="1" stop-color="rgb(67.76123%, 24.667358%, 99.389648%)" offset="0.75"/><stop stop-opacity="1" stop-color="rgb(68.087769%, 24.330139%, 99.407959%)" offset="0.757813"/><stop stop-opacity="1" stop-color="rgb(68.415833%, 23.991394%, 99.427795%)" offset="0.765625"/><stop stop-opacity="1" stop-color="rgb(68.742371%, 23.654175%, 99.446106%)" offset="0.773438"/><stop stop-opacity="1" stop-color="rgb(69.070435%, 23.316956%, 99.464417%)" offset="0.78125"/><stop stop-opacity="1" stop-color="rgb(69.396973%, 22.979736%, 99.482727%)" offset="0.789062"/><stop stop-opacity="1" stop-color="rgb(69.725037%, 22.642517%, 99.502563%)" offset="0.796875"/><stop stop-opacity="1" stop-color="rgb(70.051575%, 22.303772%, 99.520874%)" offset="0.804688"/><stop stop-opacity="1" stop-color="rgb(70.379639%, 21.966553%, 99.539185%)" offset="0.8125"/><stop stop-opacity="1" stop-color="rgb(70.706177%, 21.629333%, 99.559021%)" offset="0.820312"/><stop stop-opacity="1" stop-color="rgb(71.034241%, 21.292114%, 99.577332%)" offset="0.828125"/><stop stop-opacity="1" stop-color="rgb(71.360779%, 20.954895%, 99.595642%)" offset="0.835937"/><stop stop-opacity="1" stop-color="rgb(71.688843%, 20.617676%, 99.613953%)" offset="0.84375"/><stop stop-opacity="1" stop-color="rgb(72.015381%, 20.278931%, 99.633789%)" offset="0.851563"/><stop stop-opacity="1" stop-color="rgb(72.343445%, 19.941711%, 99.6521%)" offset="0.859375"/><stop stop-opacity="1" stop-color="rgb(72.669983%, 19.604492%, 99.67041%)" offset="0.867188"/><stop stop-opacity="1" stop-color="rgb(72.998047%, 19.267273%, 99.690247%)" offset="0.875"/><stop stop-opacity="1" stop-color="rgb(73.326111%, 18.930054%, 99.708557%)" offset="0.882812"/><stop stop-opacity="1" stop-color="rgb(73.652649%, 18.591309%, 99.726868%)" offset="0.890625"/><stop stop-opacity="1" stop-color="rgb(73.980713%, 18.254089%, 99.745178%)" offset="0.898438"/><stop stop-opacity="1" stop-color="rgb(74.307251%, 17.91687%, 99.765015%)" offset="0.90625"/><stop stop-opacity="1" stop-color="rgb(74.635315%, 17.579651%, 99.783325%)" offset="0.914062"/><stop stop-opacity="1" stop-color="rgb(74.961853%, 17.242432%, 99.801636%)" offset="0.921875"/><stop stop-opacity="1" stop-color="rgb(75.289917%, 16.905212%, 99.821472%)" offset="0.929687"/><stop stop-opacity="1" stop-color="rgb(75.616455%, 16.566467%, 99.839783%)" offset="0.9375"/><stop stop-opacity="1" stop-color="rgb(75.944519%, 16.229248%, 99.858093%)" offset="0.945313"/><stop stop-opacity="1" stop-color="rgb(76.271057%, 15.892029%, 99.876404%)" offset="0.953125"/><stop stop-opacity="1" stop-color="rgb(76.599121%, 15.55481%, 99.89624%)" offset="0.960938"/><stop stop-opacity="1" stop-color="rgb(76.925659%, 15.21759%, 99.914551%)" offset="0.96875"/><stop stop-opacity="1" stop-color="rgb(77.253723%, 14.878845%, 99.932861%)" offset="0.976562"/><stop stop-opacity="1" stop-color="rgb(77.580261%, 14.541626%, 99.952698%)" offset="0.984375"/><stop stop-opacity="1" stop-color="rgb(77.908325%, 14.204407%, 99.971008%)" offset="0.992188"/><stop stop-opacity="1" stop-color="rgb(39.5401%, 7.106018%, 50.634766%)" offset="0.996094"/><stop stop-opacity="1" stop-color="rgb(1.010132%, 0.175476%, 1.289368%)" offset="1"/></linearGradient></defs><g clip-path="url(#dff890f139)"><g clip-path="url(#bb9b66a6bb)"><path fill="url(#7e6712e506)" d="M 0 233.390625 L 0 576.890625 L 343.5 576.890625 L 343.5 233.390625 Z M 0 233.390625 " fill-rule="nonzero"/></g></g><path fill="#ffffff" d="M 220.214844 405.140625 L 123.285156 405.140625 C 117.664062 405.140625 113.105469 400.582031 113.105469 394.960938 L 113.105469 324.761719 C 113.105469 319.140625 117.664062 314.582031 123.285156 314.582031 L 220.152344 314.582031 C 225.773438 314.582031 230.332031 319.140625 230.332031 324.761719 L 230.332031 394.960938 C 230.332031 400.582031 225.773438 405.140625 220.214844 405.140625 Z M 123.285156 321.074219 C 121.222656 321.074219 119.601562 322.761719 119.601562 324.761719 L 119.601562 394.960938 C 119.601562 397.019531 121.285156 398.644531 123.285156 398.644531 L 220.152344 398.644531 C 222.214844 398.644531 223.835938 396.957031 223.835938 394.960938 L 223.835938 324.761719 C 223.835938 322.699219 222.152344 321.074219 220.152344 321.074219 Z M 123.285156 321.074219 " fill-opacity="1" fill-rule="nonzero"/><path fill="#ffffff" d="M 227.085938 346.933594 L 116.414062 346.933594 C 114.605469 346.933594 113.167969 345.496094 113.167969 343.683594 C 113.167969 341.875 114.605469 340.4375 116.414062 340.4375 L 227.148438 340.4375 C 228.957031 340.4375 230.394531 341.875 230.394531 343.683594 C 230.394531 345.496094 228.894531 346.933594 227.085938 346.933594 Z M 227.085938 346.933594 " fill-opacity="1" fill-rule="nonzero"/><path fill="#ffffff" d="M 152.328125 334.003906 L 129.71875 334.003906 C 127.90625 334.003906 126.46875 332.566406 126.46875 330.757812 C 126.46875 328.945312 127.90625 327.507812 129.71875 327.507812 L 152.328125 327.507812 C 154.136719 327.507812 155.574219 328.945312 155.574219 330.757812 C 155.574219 332.566406 154.136719 334.003906 152.328125 334.003906 Z M 152.328125 334.003906 " fill-opacity="1" fill-rule="nonzero"/><path fill="#ffffff" d="M 197.605469 334.003906 L 194.359375 334.003906 C 192.546875 334.003906 191.109375 332.566406 191.109375 330.757812 C 191.109375 328.945312 192.546875 327.507812 194.359375 327.507812 L 197.605469 327.507812 C 199.417969 327.507812 200.855469 328.945312 200.855469 330.757812 C 200.855469 332.566406 199.417969 334.003906 197.605469 334.003906 Z M 197.605469 334.003906 " fill-opacity="1" fill-rule="nonzero"/><path fill="#ffffff" d="M 213.78125 334.003906 L 210.535156 334.003906 C 208.722656 334.003906 207.285156 332.566406 207.285156 330.757812 C 207.285156 328.945312 208.722656 327.507812 210.535156 327.507812 L 213.78125 327.507812 C 215.59375 327.507812 217.03125 328.945312 217.03125 330.757812 C 217.03125 332.566406 215.59375 334.003906 213.78125 334.003906 Z M 213.78125 334.003906 " fill-opacity="1" fill-rule="nonzero"/><path fill="#ffffff" d="M 116.789062 495.699219 L 71.511719 495.699219 C 69.699219 495.699219 68.261719 494.261719 68.261719 492.449219 L 68.261719 460.101562 C 68.261719 458.289062 69.699219 456.851562 71.511719 456.851562 L 116.789062 456.851562 C 118.601562 456.851562 120.039062 458.289062 120.039062 460.101562 L 120.039062 492.449219 C 120.039062 494.199219 118.601562 495.699219 116.789062 495.699219 Z M 74.757812 489.203125 L 113.542969 489.203125 L 113.542969 463.347656 L 74.757812 463.347656 Z M 74.757812 489.203125 " fill-opacity="1" fill-rule="nonzero"/><path fill="#ffffff" d="M 194.359375 495.699219 L 149.078125 495.699219 C 147.269531 495.699219 145.832031 494.261719 145.832031 492.449219 L 145.832031 460.101562 C 145.832031 458.289062 147.269531 456.851562 149.078125 456.851562 L 194.359375 456.851562 C 196.167969 456.851562 197.605469 458.289062 197.605469 460.101562 L 197.605469 492.449219 C 197.605469 494.199219 196.167969 495.699219 194.359375 495.699219 Z M 152.328125 489.203125 L 191.109375 489.203125 L 191.109375 463.347656 L 152.328125 463.347656 Z M 152.328125 489.203125 " fill-opacity="1" fill-rule="nonzero"/><path fill="#ffffff" d="M 271.988281 495.699219 L 226.710938 495.699219 C 224.898438 495.699219 223.460938 494.261719 223.460938 492.449219 L 223.460938 460.101562 C 223.460938 458.289062 224.898438 456.851562 226.710938 456.851562 L 271.988281 456.851562 C 273.800781 456.851562 275.238281 458.289062 275.238281 460.101562 L 275.238281 492.449219 C 275.175781 494.199219 273.738281 495.699219 271.988281 495.699219 Z M 229.957031 489.203125 L 268.742188 489.203125 L 268.742188 463.347656 L 229.957031 463.347656 Z M 229.957031 489.203125 " fill-opacity="1" fill-rule="nonzero"/><path fill="#ffffff" d="M 252.566406 463.347656 C 250.753906 463.347656 249.320312 461.910156 249.320312 460.101562 L 249.320312 434.242188 L 97.367188 434.242188 L 97.367188 460.101562 C 97.367188 461.910156 95.929688 463.347656 94.117188 463.347656 C 92.308594 463.347656 90.871094 461.910156 90.871094 460.101562 L 90.871094 430.996094 C 90.871094 429.183594 92.308594 427.75 94.117188 427.75 L 252.503906 427.75 C 254.316406 427.75 255.75 429.183594 255.75 430.996094 L 255.75 460.101562 C 255.8125 461.910156 254.378906 463.347656 252.566406 463.347656 Z M 252.566406 463.347656 " fill-opacity="1" fill-rule="nonzero"/><path fill="#ffffff" d="M 171.75 463.347656 C 169.9375 463.347656 168.503906 461.910156 168.503906 460.101562 L 168.503906 401.890625 C 168.503906 400.082031 169.9375 398.644531 171.75 398.644531 C 173.5625 398.644531 174.996094 400.082031 174.996094 401.890625 L 174.996094 460.101562 C 174.996094 461.910156 173.5625 463.347656 171.75 463.347656 Z M 171.75 463.347656 " fill-opacity="1" fill-rule="nonzero"/><g fill="#fefefe" fill-opacity="1"><g transform="translate(359.051589, 462.374997)"><g><path d="M 89.9375 -110.375 C 88.988281 -108.851562 87.988281 -107.710938 86.9375 -106.953125 C 85.894531 -106.191406 84.550781 -105.8125 82.90625 -105.8125 C 81.445312 -105.8125 79.875 -106.269531 78.1875 -107.1875 C 76.507812 -108.113281 74.609375 -109.144531 72.484375 -110.28125 C 70.367188 -111.425781 67.945312 -112.457031 65.21875 -113.375 C 62.488281 -114.289062 59.382812 -114.75 55.90625 -114.75 C 49.882812 -114.75 45.398438 -113.460938 42.453125 -110.890625 C 39.503906 -108.328125 38.03125 -104.859375 38.03125 -100.484375 C 38.03125 -97.703125 38.914062 -95.390625 40.6875 -93.546875 C 42.46875 -91.710938 44.796875 -90.128906 47.671875 -88.796875 C 50.554688 -87.460938 53.851562 -86.238281 57.5625 -85.125 C 61.269531 -84.019531 65.054688 -82.785156 68.921875 -81.421875 C 72.785156 -80.066406 76.570312 -78.46875 80.28125 -76.625 C 83.988281 -74.789062 87.285156 -72.445312 90.171875 -69.59375 C 93.054688 -66.738281 95.382812 -63.265625 97.15625 -59.171875 C 98.9375 -55.085938 99.828125 -50.160156 99.828125 -44.390625 C 99.828125 -37.992188 98.71875 -32.003906 96.5 -26.421875 C 94.28125 -20.847656 91.0625 -15.984375 86.84375 -11.828125 C 82.632812 -7.679688 77.4375 -4.421875 71.25 -2.046875 C 65.070312 0.328125 58.054688 1.515625 50.203125 1.515625 C 45.890625 1.515625 41.5 1.070312 37.03125 0.1875 C 32.5625 -0.695312 28.234375 -1.945312 24.046875 -3.5625 C 19.867188 -5.175781 15.941406 -7.09375 12.265625 -9.3125 C 8.585938 -11.53125 5.382812 -14.003906 2.65625 -16.734375 L 12.171875 -31.75 C 12.929688 -32.832031 13.925781 -33.738281 15.15625 -34.46875 C 16.394531 -35.195312 17.742188 -35.5625 19.203125 -35.5625 C 21.109375 -35.5625 23.023438 -34.957031 24.953125 -33.75 C 26.890625 -32.539062 29.078125 -31.207031 31.515625 -29.75 C 33.953125 -28.300781 36.753906 -26.972656 39.921875 -25.765625 C 43.097656 -24.554688 46.835938 -23.953125 51.140625 -23.953125 C 56.972656 -23.953125 61.503906 -25.234375 64.734375 -27.796875 C 67.972656 -30.367188 69.59375 -34.445312 69.59375 -40.03125 C 69.59375 -43.257812 68.703125 -45.882812 66.921875 -47.90625 C 65.148438 -49.9375 62.820312 -51.617188 59.9375 -52.953125 C 57.050781 -54.285156 53.769531 -55.457031 50.09375 -56.46875 C 46.425781 -57.488281 42.65625 -58.613281 38.78125 -59.84375 C 34.914062 -61.082031 31.144531 -62.601562 27.46875 -64.40625 C 23.800781 -66.21875 20.523438 -68.597656 17.640625 -71.546875 C 14.753906 -74.492188 12.421875 -78.164062 10.640625 -82.5625 C 8.867188 -86.96875 7.984375 -92.40625 7.984375 -98.875 C 7.984375 -104.070312 9.03125 -109.140625 11.125 -114.078125 C 13.21875 -119.023438 16.289062 -123.429688 20.34375 -127.296875 C 24.394531 -131.160156 29.367188 -134.25 35.265625 -136.5625 C 41.160156 -138.875 47.910156 -140.03125 55.515625 -140.03125 C 59.765625 -140.03125 63.898438 -139.695312 67.921875 -139.03125 C 71.953125 -138.375 75.769531 -137.394531 79.375 -136.09375 C 82.988281 -134.789062 86.363281 -133.234375 89.5 -131.421875 C 92.644531 -129.617188 95.453125 -127.578125 97.921875 -125.296875 Z M 89.9375 -110.375 "/></g></g></g><g fill="#fefefe" fill-opacity="1"><g transform="translate(464.387364, 462.374997)"><g><path d="M 40.125 -98.59375 L 40.125 0 L 10.640625 0 L 10.640625 -98.59375 Z M 43.15625 -125.59375 C 43.15625 -123.25 42.679688 -121.046875 41.734375 -118.984375 C 40.785156 -116.921875 39.484375 -115.113281 37.828125 -113.5625 C 36.179688 -112.007812 34.265625 -110.769531 32.078125 -109.84375 C 29.898438 -108.925781 27.570312 -108.46875 25.09375 -108.46875 C 22.6875 -108.46875 20.4375 -108.925781 18.34375 -109.84375 C 16.257812 -110.769531 14.40625 -112.007812 12.78125 -113.5625 C 11.164062 -115.113281 9.898438 -116.921875 8.984375 -118.984375 C 8.066406 -121.046875 7.609375 -123.25 7.609375 -125.59375 C 7.609375 -128 8.066406 -130.242188 8.984375 -132.328125 C 9.898438 -134.421875 11.164062 -136.257812 12.78125 -137.84375 C 14.40625 -139.4375 16.257812 -140.675781 18.34375 -141.5625 C 20.4375 -142.445312 22.6875 -142.890625 25.09375 -142.890625 C 27.570312 -142.890625 29.898438 -142.445312 32.078125 -141.5625 C 34.265625 -140.675781 36.179688 -139.4375 37.828125 -137.84375 C 39.484375 -136.257812 40.785156 -134.421875 41.734375 -132.328125 C 42.679688 -130.242188 43.15625 -128 43.15625 -125.59375 Z M 43.15625 -125.59375 "/></g></g></g><g fill="#fefefe" fill-opacity="1"><g transform="translate(515.153879, 462.374997)"><g><path d="M 72.640625 -77 C 71.878906 -75.800781 71.066406 -74.945312 70.203125 -74.4375 C 69.347656 -73.925781 68.253906 -73.671875 66.921875 -73.671875 C 65.535156 -73.671875 64.144531 -73.972656 62.75 -74.578125 C 61.351562 -75.179688 59.847656 -75.832031 58.234375 -76.53125 C 56.617188 -77.226562 54.796875 -77.878906 52.765625 -78.484375 C 50.734375 -79.085938 48.421875 -79.390625 45.828125 -79.390625 C 42.085938 -79.390625 39.21875 -78.675781 37.21875 -77.25 C 35.21875 -75.820312 34.21875 -73.835938 34.21875 -71.296875 C 34.21875 -69.460938 34.867188 -67.941406 36.171875 -66.734375 C 37.472656 -65.535156 39.203125 -64.472656 41.359375 -63.546875 C 43.515625 -62.628906 45.953125 -61.757812 48.671875 -60.9375 C 51.398438 -60.113281 54.191406 -59.191406 57.046875 -58.171875 C 59.898438 -57.160156 62.6875 -55.972656 65.40625 -54.609375 C 68.132812 -53.253906 70.578125 -51.578125 72.734375 -49.578125 C 74.890625 -47.578125 76.613281 -45.148438 77.90625 -42.296875 C 79.207031 -39.453125 79.859375 -36.03125 79.859375 -32.03125 C 79.859375 -27.15625 78.96875 -22.65625 77.1875 -18.53125 C 75.414062 -14.414062 72.769531 -10.867188 69.25 -7.890625 C 65.738281 -4.910156 61.398438 -2.597656 56.234375 -0.953125 C 51.066406 0.691406 45.125 1.515625 38.40625 1.515625 C 35.050781 1.515625 31.691406 1.195312 28.328125 0.5625 C 24.972656 -0.0625 21.722656 -0.910156 18.578125 -1.984375 C 15.441406 -3.066406 12.539062 -4.351562 9.875 -5.84375 C 7.21875 -7.332031 4.941406 -8.929688 3.046875 -10.640625 L 9.890625 -21.484375 C 10.648438 -22.753906 11.613281 -23.753906 12.78125 -24.484375 C 13.957031 -25.210938 15.460938 -25.578125 17.296875 -25.578125 C 19.015625 -25.578125 20.550781 -25.195312 21.90625 -24.4375 C 23.269531 -23.675781 24.742188 -22.847656 26.328125 -21.953125 C 27.921875 -21.066406 29.773438 -20.242188 31.890625 -19.484375 C 34.015625 -18.722656 36.691406 -18.34375 39.921875 -18.34375 C 42.210938 -18.34375 44.148438 -18.582031 45.734375 -19.0625 C 47.316406 -19.539062 48.582031 -20.191406 49.53125 -21.015625 C 50.476562 -21.835938 51.171875 -22.753906 51.609375 -23.765625 C 52.054688 -24.773438 52.28125 -25.820312 52.28125 -26.90625 C 52.28125 -28.875 51.613281 -30.488281 50.28125 -31.75 C 48.957031 -33.019531 47.21875 -34.113281 45.0625 -35.03125 C 42.90625 -35.945312 40.445312 -36.800781 37.6875 -37.59375 C 34.9375 -38.382812 32.132812 -39.285156 29.28125 -40.296875 C 26.425781 -41.316406 23.617188 -42.539062 20.859375 -43.96875 C 18.109375 -45.394531 15.65625 -47.203125 13.5 -49.390625 C 11.34375 -51.578125 9.597656 -54.253906 8.265625 -57.421875 C 6.941406 -60.585938 6.28125 -64.421875 6.28125 -68.921875 C 6.28125 -73.109375 7.085938 -77.085938 8.703125 -80.859375 C 10.316406 -84.628906 12.738281 -87.941406 15.96875 -90.796875 C 19.207031 -93.648438 23.265625 -95.914062 28.140625 -97.59375 C 33.023438 -99.269531 38.726562 -100.109375 45.25 -100.109375 C 48.800781 -100.109375 52.238281 -99.789062 55.5625 -99.15625 C 58.894531 -98.519531 62.019531 -97.628906 64.9375 -96.484375 C 67.851562 -95.347656 70.515625 -94.003906 72.921875 -92.453125 C 75.328125 -90.898438 77.445312 -89.207031 79.28125 -87.375 Z M 72.640625 -77 "/></g></g></g><g fill="#fefefe" fill-opacity="1"><g transform="translate(599.859803, 462.374997)"><g><path d="M 45.25 1.515625 C 40.5625 1.515625 36.425781 0.835938 32.84375 -0.515625 C 29.257812 -1.878906 26.25 -3.8125 23.8125 -6.3125 C 21.375 -8.820312 19.519531 -11.847656 18.25 -15.390625 C 16.988281 -18.941406 16.359375 -22.90625 16.359375 -27.28125 L 16.359375 -78.25 L 7.984375 -78.25 C 6.460938 -78.25 5.160156 -78.738281 4.078125 -79.71875 C 3.003906 -80.695312 2.46875 -82.140625 2.46875 -84.046875 L 2.46875 -95.546875 L 18.15625 -98.59375 L 23.953125 -122.640625 C 24.710938 -125.679688 26.867188 -127.203125 30.421875 -127.203125 L 45.828125 -127.203125 L 45.828125 -98.390625 L 70.25 -98.390625 L 70.25 -78.25 L 45.828125 -78.25 L 45.828125 -29.28125 C 45.828125 -27 46.378906 -25.113281 47.484375 -23.625 C 48.597656 -22.132812 50.195312 -21.390625 52.28125 -21.390625 C 53.363281 -21.390625 54.269531 -21.5 55 -21.71875 C 55.726562 -21.945312 56.359375 -22.203125 56.890625 -22.484375 C 57.429688 -22.765625 57.941406 -23.015625 58.421875 -23.234375 C 58.898438 -23.460938 59.453125 -23.578125 60.078125 -23.578125 C 60.972656 -23.578125 61.6875 -23.367188 62.21875 -22.953125 C 62.757812 -22.546875 63.316406 -21.898438 63.890625 -21.015625 L 72.828125 -7.03125 C 69.023438 -4.175781 64.742188 -2.035156 59.984375 -0.609375 C 55.234375 0.804688 50.320312 1.515625 45.25 1.515625 Z M 45.25 1.515625 "/></g></g></g><g fill="#fefefe" fill-opacity="1"><g transform="translate(672.872328, 462.374997)"><g><path d="M 71.296875 -61.125 C 71.296875 -63.46875 70.992188 -65.75 70.390625 -67.96875 C 69.796875 -70.1875 68.816406 -72.164062 67.453125 -73.90625 C 66.085938 -75.65625 64.296875 -77.066406 62.078125 -78.140625 C 59.859375 -79.222656 57.164062 -79.765625 54 -79.765625 C 48.425781 -79.765625 44.050781 -78.160156 40.875 -74.953125 C 37.707031 -71.753906 35.617188 -67.144531 34.609375 -61.125 Z M 34.21875 -44.015625 C 35.175781 -35.773438 37.679688 -29.800781 41.734375 -26.09375 C 45.796875 -22.382812 51.023438 -20.53125 57.421875 -20.53125 C 60.847656 -20.53125 63.796875 -20.941406 66.265625 -21.765625 C 68.734375 -22.585938 70.929688 -23.503906 72.859375 -24.515625 C 74.796875 -25.535156 76.570312 -26.457031 78.1875 -27.28125 C 79.8125 -28.101562 81.507812 -28.515625 83.28125 -28.515625 C 85.625 -28.515625 87.398438 -27.660156 88.609375 -25.953125 L 97.15625 -15.40625 C 94.113281 -11.914062 90.832031 -9.078125 87.3125 -6.890625 C 83.800781 -4.703125 80.191406 -2.988281 76.484375 -1.75 C 72.773438 -0.519531 69.066406 0.328125 65.359375 0.796875 C 61.648438 1.273438 58.117188 1.515625 54.765625 1.515625 C 47.847656 1.515625 41.363281 0.390625 35.3125 -1.859375 C 29.257812 -4.109375 23.96875 -7.445312 19.4375 -11.875 C 14.90625 -16.3125 11.320312 -21.828125 8.6875 -28.421875 C 6.0625 -35.015625 4.75 -42.6875 4.75 -51.4375 C 4.75 -58.03125 5.875 -64.269531 8.125 -70.15625 C 10.375 -76.050781 13.601562 -81.21875 17.8125 -85.65625 C 22.03125 -90.09375 27.132812 -93.609375 33.125 -96.203125 C 39.113281 -98.804688 45.878906 -100.109375 53.421875 -100.109375 C 59.953125 -100.109375 65.925781 -99.09375 71.34375 -97.0625 C 76.769531 -95.039062 81.429688 -92.09375 85.328125 -88.21875 C 89.222656 -84.351562 92.265625 -79.613281 94.453125 -74 C 96.640625 -68.394531 97.734375 -62.046875 97.734375 -54.953125 C 97.734375 -52.734375 97.632812 -50.925781 97.4375 -49.53125 C 97.25 -48.132812 96.898438 -47.023438 96.390625 -46.203125 C 95.890625 -45.378906 95.210938 -44.804688 94.359375 -44.484375 C 93.503906 -44.171875 92.410156 -44.015625 91.078125 -44.015625 Z M 34.21875 -44.015625 "/></g></g></g><g fill="#fefefe" fill-opacity="1"><g transform="translate(775.356041, 462.374997)"><g><path d="M 9.984375 0 L 9.984375 -98.59375 L 28.234375 -98.59375 C 31.910156 -98.59375 34.320312 -96.941406 35.46875 -93.640625 L 37.078125 -88.328125 C 38.722656 -90.035156 40.429688 -91.601562 42.203125 -93.03125 C 43.984375 -94.457031 45.898438 -95.691406 47.953125 -96.734375 C 50.015625 -97.773438 52.234375 -98.597656 54.609375 -99.203125 C 56.992188 -99.804688 59.613281 -100.109375 62.46875 -100.109375 C 68.414062 -100.109375 73.335938 -98.570312 77.234375 -95.5 C 81.140625 -92.425781 84.109375 -88.320312 86.140625 -83.1875 C 87.785156 -86.226562 89.796875 -88.828125 92.171875 -90.984375 C 94.546875 -93.140625 97.109375 -94.878906 99.859375 -96.203125 C 102.617188 -97.535156 105.535156 -98.519531 108.609375 -99.15625 C 111.691406 -99.789062 114.753906 -100.109375 117.796875 -100.109375 C 123.429688 -100.109375 128.4375 -99.269531 132.8125 -97.59375 C 137.1875 -95.914062 140.847656 -93.472656 143.796875 -90.265625 C 146.742188 -87.066406 148.976562 -83.140625 150.5 -78.484375 C 152.019531 -73.828125 152.78125 -68.550781 152.78125 -62.65625 L 152.78125 0 L 123.3125 0 L 123.3125 -62.65625 C 123.3125 -72.851562 118.9375 -77.953125 110.1875 -77.953125 C 106.195312 -77.953125 102.882812 -76.632812 100.25 -74 C 97.625 -71.375 96.3125 -67.59375 96.3125 -62.65625 L 96.3125 0 L 66.828125 0 L 66.828125 -62.65625 C 66.828125 -68.289062 65.71875 -72.25 63.5 -74.53125 C 61.28125 -76.8125 58.019531 -77.953125 53.71875 -77.953125 C 51.050781 -77.953125 48.53125 -77.347656 46.15625 -76.140625 C 43.78125 -74.941406 41.546875 -73.328125 39.453125 -71.296875 L 39.453125 0 Z M 9.984375 0 "/></g></g></g><g fill="#fefefe" fill-opacity="1"><g transform="translate(937.162443, 462.374997)"><g><path d="M 62.265625 -70.546875 C 70.640625 -70.546875 76.660156 -72.539062 80.328125 -76.53125 C 84.003906 -80.519531 85.84375 -86.097656 85.84375 -93.265625 C 85.84375 -96.429688 85.367188 -99.3125 84.421875 -101.90625 C 83.472656 -104.507812 82.03125 -106.742188 80.09375 -108.609375 C 78.164062 -110.484375 75.726562 -111.925781 72.78125 -112.9375 C 69.832031 -113.957031 66.328125 -114.46875 62.265625 -114.46875 L 45.53125 -114.46875 L 45.53125 -70.546875 Z M 62.265625 -138.515625 C 72.023438 -138.515625 80.40625 -137.359375 87.40625 -135.046875 C 94.414062 -132.734375 100.1875 -129.546875 104.71875 -125.484375 C 109.25 -121.429688 112.59375 -116.644531 114.75 -111.125 C 116.90625 -105.613281 117.984375 -99.660156 117.984375 -93.265625 C 117.984375 -86.359375 116.875 -80.019531 114.65625 -74.25 C 112.4375 -68.476562 109.046875 -63.53125 104.484375 -59.40625 C 99.921875 -55.289062 94.132812 -52.078125 87.125 -49.765625 C 80.125 -47.453125 71.835938 -46.296875 62.265625 -46.296875 L 45.53125 -46.296875 L 45.53125 0 L 13.40625 0 L 13.40625 -138.515625 Z M 62.265625 -138.515625 "/></g></g></g><g fill="#fefefe" fill-opacity="1"><g transform="translate(1058.089454, 462.374997)"><g><path d="M 60.84375 -40.125 C 54.945312 -39.863281 50.097656 -39.351562 46.296875 -38.59375 C 42.492188 -37.832031 39.484375 -36.878906 37.265625 -35.734375 C 35.046875 -34.597656 33.507812 -33.300781 32.65625 -31.84375 C 31.800781 -30.382812 31.375 -28.800781 31.375 -27.09375 C 31.375 -23.738281 32.289062 -21.378906 34.125 -20.015625 C 35.96875 -18.648438 38.664062 -17.96875 42.21875 -17.96875 C 46.019531 -17.96875 49.34375 -18.632812 52.1875 -19.96875 C 55.039062 -21.300781 57.925781 -23.453125 60.84375 -26.421875 Z M 7.796875 -84.890625 C 13.753906 -90.148438 20.359375 -94.0625 27.609375 -96.625 C 34.867188 -99.195312 42.648438 -100.484375 50.953125 -100.484375 C 56.910156 -100.484375 62.28125 -99.515625 67.0625 -97.578125 C 71.851562 -95.648438 75.910156 -92.957031 79.234375 -89.5 C 82.566406 -86.050781 85.117188 -81.945312 86.890625 -77.1875 C 88.671875 -72.4375 89.5625 -67.242188 89.5625 -61.609375 L 89.5625 0 L 76.0625 0 C 73.269531 0 71.160156 -0.378906 69.734375 -1.140625 C 68.304688 -1.898438 67.117188 -3.484375 66.171875 -5.890625 L 64.078125 -11.3125 C 61.609375 -9.21875 59.234375 -7.378906 56.953125 -5.796875 C 54.671875 -4.210938 52.304688 -2.863281 49.859375 -1.75 C 47.421875 -0.644531 44.820312 0.171875 42.0625 0.703125 C 39.3125 1.242188 36.253906 1.515625 32.890625 1.515625 C 28.390625 1.515625 24.300781 0.929688 20.625 -0.234375 C 16.945312 -1.410156 13.828125 -3.140625 11.265625 -5.421875 C 8.703125 -7.703125 6.722656 -10.535156 5.328125 -13.921875 C 3.929688 -17.316406 3.234375 -21.234375 3.234375 -25.671875 C 3.234375 -29.222656 4.117188 -32.816406 5.890625 -36.453125 C 7.671875 -40.097656 10.742188 -43.425781 15.109375 -46.4375 C 19.484375 -49.445312 25.378906 -51.96875 32.796875 -54 C 40.210938 -56.03125 49.5625 -57.171875 60.84375 -57.421875 L 60.84375 -61.609375 C 60.84375 -67.367188 59.65625 -71.53125 57.28125 -74.09375 C 54.90625 -76.664062 51.53125 -77.953125 47.15625 -77.953125 C 43.664062 -77.953125 40.8125 -77.570312 38.59375 -76.8125 C 36.375 -76.050781 34.394531 -75.195312 32.65625 -74.25 C 30.914062 -73.300781 29.21875 -72.445312 27.5625 -71.6875 C 25.914062 -70.925781 23.953125 -70.546875 21.671875 -70.546875 C 19.648438 -70.546875 17.941406 -71.050781 16.546875 -72.0625 C 15.148438 -73.070312 14.007812 -74.273438 13.125 -75.671875 Z M 7.796875 -84.890625 "/></g></g></g><g fill="#fefefe" fill-opacity="1"><g transform="translate(1156.485201, 462.374997)"><g><path d="M 39.453125 -142.328125 L 39.453125 -62.5625 L 43.828125 -62.5625 C 45.660156 -62.5625 47.050781 -62.828125 48 -63.359375 C 48.957031 -63.898438 49.910156 -64.804688 50.859375 -66.078125 L 69.5 -93.828125 C 70.632812 -95.421875 71.929688 -96.613281 73.390625 -97.40625 C 74.847656 -98.195312 76.71875 -98.59375 79 -98.59375 L 106 -98.59375 L 80.53125 -63.5 C 78.113281 -60.332031 75.257812 -57.738281 71.96875 -55.71875 C 73.425781 -54.632812 74.753906 -53.378906 75.953125 -51.953125 C 77.160156 -50.523438 78.304688 -48.925781 79.390625 -47.15625 L 107.140625 0 L 80.53125 0 C 78.3125 0 76.40625 -0.363281 74.8125 -1.09375 C 73.226562 -1.820312 71.898438 -3.101562 70.828125 -4.9375 L 52.1875 -39.828125 C 51.300781 -41.421875 50.382812 -42.453125 49.4375 -42.921875 C 48.488281 -43.398438 47.0625 -43.640625 45.15625 -43.640625 L 39.453125 -43.640625 L 39.453125 0 L 9.984375 0 L 9.984375 -142.328125 Z M 39.453125 -142.328125 "/></g></g></g><g fill="#fefefe" fill-opacity="1"><g transform="translate(1262.676571, 462.374997)"><g><path d="M 60.84375 -40.125 C 54.945312 -39.863281 50.097656 -39.351562 46.296875 -38.59375 C 42.492188 -37.832031 39.484375 -36.878906 37.265625 -35.734375 C 35.046875 -34.597656 33.507812 -33.300781 32.65625 -31.84375 C 31.800781 -30.382812 31.375 -28.800781 31.375 -27.09375 C 31.375 -23.738281 32.289062 -21.378906 34.125 -20.015625 C 35.96875 -18.648438 38.664062 -17.96875 42.21875 -17.96875 C 46.019531 -17.96875 49.34375 -18.632812 52.1875 -19.96875 C 55.039062 -21.300781 57.925781 -23.453125 60.84375 -26.421875 Z M 7.796875 -84.890625 C 13.753906 -90.148438 20.359375 -94.0625 27.609375 -96.625 C 34.867188 -99.195312 42.648438 -100.484375 50.953125 -100.484375 C 56.910156 -100.484375 62.28125 -99.515625 67.0625 -97.578125 C 71.851562 -95.648438 75.910156 -92.957031 79.234375 -89.5 C 82.566406 -86.050781 85.117188 -81.945312 86.890625 -77.1875 C 88.671875 -72.4375 89.5625 -67.242188 89.5625 -61.609375 L 89.5625 0 L 76.0625 0 C 73.269531 0 71.160156 -0.378906 69.734375 -1.140625 C 68.304688 -1.898438 67.117188 -3.484375 66.171875 -5.890625 L 64.078125 -11.3125 C 61.609375 -9.21875 59.234375 -7.378906 56.953125 -5.796875 C 54.671875 -4.210938 52.304688 -2.863281 49.859375 -1.75 C 47.421875 -0.644531 44.820312 0.171875 42.0625 0.703125 C 39.3125 1.242188 36.253906 1.515625 32.890625 1.515625 C 28.390625 1.515625 24.300781 0.929688 20.625 -0.234375 C 16.945312 -1.410156 13.828125 -3.140625 11.265625 -5.421875 C 8.703125 -7.703125 6.722656 -10.535156 5.328125 -13.921875 C 3.929688 -17.316406 3.234375 -21.234375 3.234375 -25.671875 C 3.234375 -29.222656 4.117188 -32.816406 5.890625 -36.453125 C 7.671875 -40.097656 10.742188 -43.425781 15.109375 -46.4375 C 19.484375 -49.445312 25.378906 -51.96875 32.796875 -54 C 40.210938 -56.03125 49.5625 -57.171875 60.84375 -57.421875 L 60.84375 -61.609375 C 60.84375 -67.367188 59.65625 -71.53125 57.28125 -74.09375 C 54.90625 -76.664062 51.53125 -77.953125 47.15625 -77.953125 C 43.664062 -77.953125 40.8125 -77.570312 38.59375 -76.8125 C 36.375 -76.050781 34.394531 -75.195312 32.65625 -74.25 C 30.914062 -73.300781 29.21875 -72.445312 27.5625 -71.6875 C 25.914062 -70.925781 23.953125 -70.546875 21.671875 -70.546875 C 19.648438 -70.546875 17.941406 -71.050781 16.546875 -72.0625 C 15.148438 -73.070312 14.007812 -74.273438 13.125 -75.671875 Z M 7.796875 -84.890625 "/></g></g></g><g fill="#fefefe" fill-opacity="1"><g transform="translate(1361.072318, 462.374997)"><g><path d="M 37.546875 -83.375 C 40.585938 -88.695312 44.085938 -92.878906 48.046875 -95.921875 C 52.015625 -98.960938 56.566406 -100.484375 61.703125 -100.484375 C 66.140625 -100.484375 69.75 -99.441406 72.53125 -97.359375 L 70.640625 -75.671875 C 70.316406 -74.273438 69.789062 -73.320312 69.0625 -72.8125 C 68.332031 -72.3125 67.335938 -72.0625 66.078125 -72.0625 C 65.566406 -72.0625 64.898438 -72.09375 64.078125 -72.15625 C 63.253906 -72.21875 62.394531 -72.296875 61.5 -72.390625 C 60.613281 -72.484375 59.710938 -72.578125 58.796875 -72.671875 C 57.878906 -72.773438 57.039062 -72.828125 56.28125 -72.828125 C 51.96875 -72.828125 48.523438 -71.6875 45.953125 -69.40625 C 43.390625 -67.125 41.222656 -63.953125 39.453125 -59.890625 L 39.453125 0 L 9.984375 0 L 9.984375 -98.59375 L 27.46875 -98.59375 C 28.925781 -98.59375 30.144531 -98.460938 31.125 -98.203125 C 32.113281 -97.953125 32.941406 -97.554688 33.609375 -97.015625 C 34.273438 -96.484375 34.78125 -95.769531 35.125 -94.875 C 35.476562 -93.988281 35.78125 -92.910156 36.03125 -91.640625 Z M 37.546875 -83.375 "/></g></g></g></svg>