<?xml version="1.0" standalone="no"?>
<!DOCTYPE svg PUBLIC "-//W3C//DTD SVG 20010904//EN"
 "http://www.w3.org/TR/2001/REC-SVG-20010904/DTD/svg10.dtd">
<svg version="1.0" xmlns="http://www.w3.org/2000/svg"
 width="200.000000pt" height="50.000000pt" viewBox="0 0 200.000000 50.000000"
 preserveAspectRatio="xMidYMid meet">

<g transform="translate(0.000000,50.000000) scale(0.100000,-0.100000)"
fill="#000000" stroke="none">
<path d="M0 250 l0 -250 1000 0 1000 0 0 250 0 250 -1000 0 -1000 0 0 -250z
m250 176 c0 -11 -19 -15 -25 -6 -3 5 1 10 9 10 9 0 16 -2 16 -4z m360 -26 c16
-16 20 -17 20 -5 0 8 9 15 20 15 11 0 20 -5 20 -11 0 -5 10 -3 22 5 29 20 34
20 58 -4 16 -16 20 -17 20 -5 0 12 16 15 85 15 69 0 85 -3 85 -15 0 -8 -4 -15
-9 -15 -6 0 -6 -12 0 -32 13 -47 13 -48 -31 -48 -39 0 -40 1 -40 35 0 19 -4
35 -10 35 -5 0 -10 -16 -10 -35 0 -28 -4 -35 -20 -35 -16 0 -20 7 -20 35 0 23
-5 35 -14 35 -16 0 -29 -27 -20 -41 9 -15 -16 -39 -41 -39 -25 0 -50 24 -41
39 4 5 2 12 -4 16 -6 4 -10 -5 -10 -21 0 -23 -3 -26 -25 -22 -14 3 -28 1 -31
-3 -8 -13 -50 -11 -61 4 -6 6 -10 19 -10 27 -1 8 -4 23 -8 32 -4 10 1 24 14
37 26 26 36 26 61 1z m393 -12 l4 -23 8 23 c5 14 15 22 31 22 22 0 24 -4 24
-55 l0 -55 -35 0 c-21 0 -35 5 -36 13 0 10 -2 10 -6 0 -2 -7 -13 -13 -24 -13
-16 0 -19 7 -19 55 0 52 2 55 24 55 18 0 26 -7 29 -22z m216 5 c9 -16 10 -16
11 -1 0 14 15 16 125 16 116 0 126 -2 140 -21 l15 -21 0 22 c0 13 6 22 15 22
11 0 15 -11 15 -40 0 -22 5 -40 10 -40 6 0 10 18 10 40 0 29 4 40 16 40 12 0
14 -10 12 -52 -3 -52 -4 -53 -36 -56 -22 -2 -34 2 -38 13 -6 14 -8 13 -21 -5
-11 -15 -23 -20 -46 -18 -30 3 -32 6 -38 48 l-6 45 -1 -42 c-2 -36 -5 -43 -22
-43 -11 0 -20 6 -21 13 0 10 -2 10 -6 0 -3 -9 -26 -13 -64 -13 -58 0 -59 1
-59 28 -1 23 -2 24 -11 10 -5 -10 -17 -18 -24 -18 -8 0 -15 -4 -15 -10 0 -5
-9 -10 -20 -10 -18 0 -20 7 -20 55 l0 55 35 0 c22 0 38 -6 44 -17z m422 -5 l2
-23 4 22 c4 18 11 22 44 21 39 0 39 -1 39 -39 0 -22 5 -39 10 -39 6 0 10 18
10 40 0 29 4 40 16 40 12 0 14 -10 12 -52 l-3 -53 -35 0 c-31 0 -35 3 -38 28
-2 15 -7 27 -12 27 -5 0 -7 -13 -3 -30 4 -23 2 -30 -11 -30 -9 0 -16 7 -16 15
0 8 -4 15 -10 15 -5 0 -10 -7 -10 -15 0 -8 -9 -15 -20 -15 -18 0 -20 7 -20 55
0 48 2 55 20 55 14 0 20 -7 21 -22z m190 10 c0 -10 2 -10 6 0 7 17 32 15 40
-4 5 -15 7 -15 15 0 14 25 67 21 77 -6 11 -29 4 -80 -12 -90 -21 -14 -51 -4
-63 21 -11 22 -12 22 -18 3 -5 -15 -16 -20 -46 -20 l-40 -1 0 55 c0 47 2 54
20 54 11 0 20 -6 21 -12z m-1583 -100 c2 -45 15 -68 27 -47 5 8 4 10 -3 5 -8
-5 -10 -1 -5 9 5 13 7 14 14 3 7 -10 9 -9 9 5 0 10 5 15 10 12 10 -6 -22 -62
-43 -76 -5 -4 -3 -9 4 -12 12 -4 11 -7 -1 -16 -19 -13 -31 -13 -50 -1 -13 9
-13 11 0 20 8 5 10 10 4 10 -10 0 -38 45 -39 64 0 19 31 13 32 -6 2 -20 1 -20
-12 -2 -8 11 -15 14 -15 8 0 -6 7 -17 15 -24 12 -10 16 -7 25 16 6 15 10 37 9
48 -2 31 0 38 9 32 5 -3 9 -24 10 -48z m159 0 c-3 -7 -5 -2 -5 12 0 14 2 19 5
13 2 -7 2 -19 0 -25z m770 -119 c3 -51 5 -52 17 -9 10 38 16 46 38 48 24 3 28
-1 34 -35 11 -65 23 -73 24 -15 0 53 12 66 38 40 9 -9 12 -9 12 0 0 7 7 12 15
12 12 0 15 -13 15 -55 0 -48 -2 -55 -20 -55 -11 0 -20 6 -21 13 0 10 -2 10 -6
0 -6 -17 -80 -17 -86 0 -4 9 -8 9 -15 -2 -6 -8 -19 -12 -31 -8 -12 3 -24 1
-27 -4 -8 -14 -50 -11 -64 6 -6 8 -9 19 -6 24 4 5 2 12 -3 15 -5 4 -11 -4 -13
-16 -2 -19 -9 -23 -38 -23 -30 0 -35 4 -44 33 -12 42 -26 41 -26 -3 0 -28 -4
-35 -20 -35 -16 0 -20 7 -20 35 0 46 -27 49 -32 3 -3 -30 -6 -33 -41 -36 -35
-3 -38 -1 -44 29 -6 30 -7 31 -14 11 -5 -12 -15 -22 -24 -22 -8 0 -15 -4 -15
-10 0 -5 -9 -10 -20 -10 -18 0 -20 7 -20 55 l0 55 35 0 c22 0 38 -6 44 -17 10
-17 10 -17 11 0 0 12 6 17 18 15 12 -2 19 -16 23 -48 l6 -45 1 46 2 47 85 1
85 2 0 -46 c0 -28 4 -44 10 -40 6 3 10 24 10 46 0 28 4 39 15 39 8 0 15 -4 15
-9 0 -6 12 -3 27 4 23 12 31 12 48 1 11 -7 21 -24 22 -37z m-597 19 c9 -22 9
-23 9 -2 1 19 7 22 61 23 47 1 60 -2 60 -14 0 -8 -4 -15 -9 -15 -6 0 -6 -12 0
-32 13 -48 14 -48 -51 -48 -47 0 -60 3 -60 15 0 8 -5 15 -11 15 -6 0 -9 -7 -5
-15 4 -10 -1 -15 -14 -15 -18 0 -20 7 -20 55 0 43 3 55 15 55 9 0 20 -10 25
-22z m-375 -58 c3 -5 1 -10 -4 -10 -6 0 -11 5 -11 10 0 6 2 10 4 10 3 0 8 -4
11 -10z m100 0 c3 -5 1 -10 -4 -10 -6 0 -11 5 -11 10 0 6 2 10 4 10 3 0 8 -4
11 -10z m-47 -37 c-10 -2 -28 -2 -40 0 -13 2 -5 4 17 4 22 1 32 -1 23 -4z"/>
<path d="M570 365 c0 -8 7 -15 15 -15 9 0 12 6 9 15 -4 8 -10 15 -15 15 -5 0
-9 -7 -9 -15z"/>
<path d="M710 365 c0 -8 7 -15 15 -15 9 0 12 6 9 15 -4 8 -10 15 -15 15 -5 0
-9 -7 -9 -15z"/>
<path d="M575 320 c3 -5 8 -10 11 -10 2 0 4 5 4 10 0 6 -5 10 -11 10 -5 0 -7
-4 -4 -10z"/>
<path d="M715 320 c3 -5 8 -10 11 -10 2 0 4 5 4 10 0 6 -5 10 -11 10 -5 0 -7
-4 -4 -10z"/>
<path d="M1170 371 c0 -6 5 -13 10 -16 6 -3 10 1 10 9 0 9 -4 16 -10 16 -5 0
-10 -4 -10 -9z"/>
<path d="M1288 374 c6 -3 12 -17 12 -30 0 -13 5 -24 11 -24 6 0 9 12 7 27 -2
19 -9 29 -23 30 -11 2 -14 0 -7 -3z"/>
<path d="M1440 350 c0 -11 5 -20 10 -20 6 0 10 9 10 20 0 11 -4 20 -10 20 -5
0 -10 -9 -10 -20z"/>
<path d="M1920 345 c0 -14 4 -25 10 -25 5 0 7 7 4 15 -4 8 -1 15 6 15 6 0 8 5
5 10 -11 18 -25 10 -25 -15z"/>
<path d="M230 240 c0 -5 5 -10 11 -10 5 0 7 5 4 10 -3 6 -8 10 -11 10 -2 0 -4
-4 -4 -10z"/>
<path d="M750 181 c0 -6 5 -13 10 -16 6 -3 10 1 10 9 0 9 -4 16 -10 16 -5 0
-10 -4 -10 -9z"/>
<path d="M1126 182 c-3 -6 -1 -14 5 -17 14 -9 20 -2 10 14 -6 8 -11 9 -15 3z"/>
<path d="M1125 130 c3 -5 8 -10 11 -10 2 0 4 5 4 10 0 6 -5 10 -11 10 -5 0 -7
-4 -4 -10z"/>
<path d="M621 164 c0 -11 3 -14 6 -6 3 7 2 16 -1 19 -3 4 -6 -2 -5 -13z"/>
</g>
</svg>
